<svg width="31" height="25" viewBox="0 0 31 25" fill="none" xmlns="http://www.w3.org/2000/svg">
<path d="M27.0974 6.55009C27.1151 6.80721 27.1151 7.06434 27.1151 7.32383C27.1151 15.2308 21.0958 24.3499 10.0891 24.3499V24.3451C6.83771 24.3499 3.65384 23.4185 0.916687 21.6625C1.38947 21.7194 1.86462 21.7478 2.34095 21.749C5.03545 21.7514 7.65293 20.8473 9.77274 19.1825C7.21214 19.1339 4.96672 17.4643 4.18231 15.027C5.07929 15.2 6.00352 15.1644 6.88392 14.9239C4.09226 14.3599 2.08383 11.9071 2.08383 9.05855C2.08383 9.03248 2.08383 9.0076 2.08383 8.98271C2.91564 9.44602 3.84698 9.70314 4.79965 9.73158C2.17033 7.97435 1.35985 4.47648 2.94763 1.7417C5.98575 5.48011 10.4683 7.75277 15.2802 7.99331C14.798 5.91497 15.4568 3.7371 17.0114 2.2761C19.4215 0.0105426 23.212 0.126664 25.4776 2.5356C26.8177 2.27136 28.1022 1.77962 29.2776 1.08289C28.8309 2.46805 27.896 3.64468 26.6471 4.39236C27.8332 4.25254 28.9921 3.93498 30.0834 3.45035C29.28 4.65422 28.2681 5.70287 27.0974 6.55009Z" fill="white"/>
</svg>
