<svg width="31" height="21" viewBox="0 0 31 21" fill="none" xmlns="http://www.w3.org/2000/svg">
<path fill-rule="evenodd" clip-rule="evenodd" d="M26.8634 0.896463C28.1177 1.23343 29.1099 2.22563 29.4469 3.4799C30.0646 5.76381 30.0834 10.5001 30.0834 10.5001C30.0834 10.5001 30.0834 15.2552 29.4656 17.5203C29.1286 18.7746 28.1364 19.7668 26.8821 20.1038C24.6169 20.7216 15.5 20.7216 15.5 20.7216C15.5 20.7216 6.3831 20.7216 4.11791 20.1038C2.86363 19.7668 1.87144 18.7746 1.53447 17.5203C0.916687 15.2364 0.916687 10.5001 0.916687 10.5001C0.916687 10.5001 0.916687 5.76381 1.51575 3.49863C1.85272 2.24435 2.84491 1.25216 4.09919 0.915191C6.36438 0.297403 15.4813 0.278687 15.4813 0.278687C15.4813 0.278687 24.5982 0.278687 26.8634 0.896463ZM20.1427 10.5001L12.5796 14.8807V6.11951L20.1427 10.5001Z" fill="white"/>
</svg>
